<?xml version="1.0" encoding="UTF-8"?>
<!DOCTYPE svg PUBLIC "-//W3C//DTD SVG 1.1//EN" "http://www.w3.org/Graphics/SVG/1.1/DTD/svg11.dtd">
<!-- Creator: CorelDRAW X6 -->
<svg xmlns="http://www.w3.org/2000/svg" xml:space="preserve" width="297mm" height="210mm" version="1.1" style="shape-rendering:geometricPrecision; text-rendering:geometricPrecision; image-rendering:optimizeQuality; fill-rule:evenodd; clip-rule:evenodd"
viewBox="0 0 29700 21000"
 xmlns:xlink="http://www.w3.org/1999/xlink">
 <defs>
  <style type="text/css">
   <![CDATA[
    .fil5 {fill:#2B2A29}
    .fil4 {fill:#FEFEFE}
    .fil0 {fill:#C5C6C6;fill-rule:nonzero}
    .fil2 {fill:#FEFEFE;fill-rule:nonzero}
    .fil3 {fill:#393185;fill-rule:nonzero}
    .fil1 {fill:#6E2623;fill-rule:nonzero}
   ]]>
  </style>
 </defs>
 <g id="Warstwa_x0020_1">
  <metadata id="CorelCorpID_0Corel-Layer"/>
  <g id="_659831552">
   <path class="fil0" d="M12983 8633c-1031,1031 -1031,2703 0,3734 1031,1031 2703,1031 3734,0 1031,-1031 1031,-2703 0,-3734 -1031,-1031 -2703,-1031 -3734,0zm3492 3492l0 0c-897,897 -2353,897 -3250,0 -897,-897 -897,-2353 0,-3250 897,-897 2353,-897 3250,0 897,897 897,2353 0,3250z"/>
   <g>
    <path class="fil1" d="M12983 8411c520,-520 1187,-806 1867,-857 -828,-62 -1677,224 -2310,857 -1154,1154 -1154,3024 0,4177 633,633 1482,919 2310,857 -681,-51 -1347,-336 -1867,-857 -1154,-1154 -1154,-3024 0,-4177z"/>
    <path class="fil1" d="M14850 7555c681,51 1347,336 1867,857 1154,1154 1154,3024 0,4177 -520,520 -1187,806 -1867,857 828,62 1677,-224 2310,-857 1154,-1154 1154,-3024 0,-4177 -633,-633 -1482,-919 -2310,-857z"/>
   </g>
   <path class="fil2" d="M13393 9039c-805,807 -805,2115 0,2922 805,807 2109,807 2913,0 805,-807 805,-2115 0,-2922 -805,-807 -2109,-807 -2913,0zm2725 2733l0 0c-700,702 -1835,702 -2536,0 -700,-702 -700,-1841 0,-2543 700,-702 1835,-702 2536,0 700,702 700,1841 0,2543z"/>
   <path class="fil3" d="M13668 9314c-653,655 -653,1716 0,2371 653,655 1711,655 2364,0 653,-655 653,-1716 0,-2371 -653,-655 -1711,-655 -2364,0zm2210 2217l0 0c-568,570 -1489,570 -2057,0 -568,-570 -568,-1494 0,-2064 568,-570 1489,-570 2057,0 568,570 568,1494 0,2064z"/>
   <path class="fil4" d="M16559 8699c204,191 375,416 505,666l-293 216c73,150 128,309 164,475l368 -1c28,149 42,303 42,460 0,119 -8,237 -25,351l-367 1c-32,188 -89,368 -166,536l297 223c-126,252 -293,480 -494,675l-298 -223c-115,105 -241,198 -377,277l118 355c-243,131 -510,222 -792,267l-118 -355c-88,11 -178,17 -269,17 -102,0 -202,-7 -300,-21l-114 355c-282,-47 -548,-142 -790,-275l115 -358c-133,-80 -258,-173 -370,-279l-300 220c-198,-197 -362,-427 -485,-681l300 -220c-71,-158 -123,-327 -154,-503l-367 1c-17,-118 -26,-238 -26,-361 0,-154 14,-304 41,-450l368 -1c37,-174 95,-341 172,-497l-291 -218c132,-249 305,-473 510,-662l291 218c109,-96 229,-180 356,-252l-114 -344c244,-128 512,-217 795,-259l114 344c82,-10 165,-14 249,-14 61,0 121,3 181,8l111 -346c285,33 555,115 802,236l-110 343c154,81 298,180 427,294l294 -216zm-1705 -82c1045,0 1892,847 1892,1892 0,1045 -847,1892 -1892,1892 -1045,0 -1892,-847 -1892,-1892 0,-1045 847,-1892 1892,-1892z"/>
   <path class="fil3" d="M16593 8663c104,97 200,204 286,318 86,113 163,234 229,361l20 38 -295 216c30,65 57,132 81,201 24,69 44,139 61,209l369 -1 8 41c14,76 25,154 32,233 7,79 11,158 11,236 0,60 -2,120 -6,180 -4,60 -11,119 -19,178l-6 43 -369 1c-15,81 -35,161 -59,238 -25,80 -54,157 -87,232l299 224 -19 37c-64,128 -138,250 -223,365 -84,115 -178,224 -281,323l-31 30 -299 -224c-50,44 -101,85 -155,124 -53,39 -108,76 -165,110l118 357 -37 20c-125,67 -256,124 -393,170 -134,45 -273,79 -416,101l-42 7 -118 -357c-32,4 -65,6 -96,8 -47,3 -93,4 -138,4 -51,0 -102,-2 -154,-5 -37,-3 -74,-6 -111,-11l-115 357 -42 -7c-142,-24 -281,-60 -415,-106 -136,-47 -267,-106 -391,-175l-36 -20 116 -360c-56,-35 -111,-72 -163,-112 -52,-39 -103,-81 -151,-125l-301 221 -30 -30c-101,-101 -194,-210 -277,-327 -83,-116 -156,-239 -218,-368l-18 -37 301 -221c-30,-70 -56,-142 -79,-216 -22,-73 -41,-146 -55,-221l-369 1 -6 -43c-9,-60 -15,-122 -20,-183 -4,-62 -7,-123 -7,-185 0,-76 4,-153 11,-231 7,-77 17,-153 31,-228l7 -41 369 -1c17,-74 39,-148 64,-220 25,-73 54,-143 86,-212l-293 -220 20 -38c67,-126 145,-246 232,-359 87,-113 184,-219 289,-316l30 -28 292 219c46,-39 95,-76 145,-112 49,-35 100,-68 153,-99l-114 -345 37 -20c126,-66 258,-122 394,-167 134,-44 274,-77 417,-97l41 -6 114 345c28,-3 57,-5 87,-7 44,-3 86,-4 128,-4 29,0 60,1 93,2 18,1 36,2 53,3l112 -348 41 5c144,17 284,46 420,86 138,41 271,93 399,155l39 19 -111 345c66,36 129,75 190,117 62,43 122,89 179,137l295 -217 30 28zm207 379c-75,-98 -157,-191 -246,-277l-292 215 -30 -27c-63,-56 -130,-108 -200,-156 -70,-48 -142,-92 -217,-131l-37 -19 110 -342c-110,-52 -225,-95 -344,-130 -117,-34 -238,-60 -363,-77l-111 345 -39 -3c-31,-3 -61,-5 -88,-6 -27,-1 -57,-2 -89,-2 -42,0 -83,1 -122,3 -40,2 -80,6 -121,11l-40 5 -113 -342c-123,20 -243,49 -359,87 -118,38 -232,86 -341,141l113 342 -36 20c-62,35 -122,73 -180,114 -58,41 -114,85 -168,132l-30 27 -290 -217c-89,85 -172,177 -247,276 -75,97 -142,200 -202,308l290 217 -18 37c-38,77 -71,156 -99,237 -28,80 -51,163 -69,248l-8 39 -366 1c-10,59 -17,118 -23,178 -6,72 -10,146 -10,222 0,60 2,120 6,178 3,45 8,89 13,133l366 -1 7 41c15,86 35,169 60,250 25,82 55,163 90,241l16 37 -298 219c56,111 120,216 191,316 72,100 151,195 236,284l298 -219 30 28c55,52 113,101 173,146 61,46 123,88 188,127l34 20 -114 356c109,58 222,108 340,148 115,40 234,72 356,94l114 -354 41 6c48,7 97,12 146,15 48,3 97,5 147,5 45,0 89,-1 132,-4 45,-3 89,-7 131,-12l41 -5 117 354c122,-21 242,-52 358,-91 117,-39 231,-88 340,-144l-117 -354 35 -20c66,-38 129,-80 191,-125 61,-45 121,-94 177,-145l31 -28 296 222c87,-87 167,-181 240,-281 72,-99 138,-204 195,-314l-296 -222 17 -36c38,-83 71,-168 99,-256 27,-87 48,-176 64,-267l7 -42 366 -1c5,-42 9,-85 12,-129 4,-56 6,-114 6,-173 0,-78 -3,-154 -10,-227 -6,-62 -14,-123 -24,-183l-366 1 -9 -39c-18,-82 -40,-161 -66,-237 -27,-77 -58,-153 -94,-227l-18 -37 292 -215c-59,-108 -126,-212 -200,-309zm-1946 -474c536,0 1022,217 1373,569 351,351 569,837 569,1373 0,536 -217,1022 -569,1373 -351,351 -837,569 -1373,569 -536,0 -1022,-217 -1373,-569 -351,-351 -569,-837 -569,-1373 0,-536 217,-1022 569,-1373 351,-351 837,-569 1373,-569zm1302 639c-333,-333 -794,-539 -1302,-539 -509,0 -969,206 -1302,539 -333,333 -539,794 -539,1302 0,509 206,969 539,1302 333,333 794,539 1302,539 509,0 969,-206 1302,-539 333,-333 539,-794 539,-1302 0,-509 -206,-969 -539,-1302z"/>
   <path class="fil0" d="M13396 9042c-803,805 -803,2111 0,2916 803,805 2104,805 2907,0 803,-805 803,-2111 0,-2916 -803,-805 -2104,-805 -2907,0zm2719 2727l0 0c-699,701 -1832,701 -2530,0 -699,-701 -699,-1837 0,-2538 699,-701 1832,-701 2530,0 699,701 699,1837 0,2538z"/>
   <path class="fil5" d="M13639 10078l347 0 333 0 10 -16c10,-15 30,-29 46,-40l8 -6c39,-32 75,-63 109,-94 138,-125 220,-217 297,-387l88 -283 32 8c34,8 78,31 121,59 51,33 101,74 132,105 18,18 34,36 48,55 14,19 27,40 40,65 12,23 23,53 31,85 7,28 11,57 11,86 0,115 -43,203 -85,268 28,-25 52,-52 67,-83l6 28c1,3 6,12 13,24l0 0c15,26 35,61 45,102l0 0 0 1c2,8 4,16 5,24l368 0 347 0c33,0 74,16 120,44 42,25 91,60 145,100 29,21 43,53 50,87 6,31 7,62 7,91l0 205c0,30 0,63 -7,95 -8,36 -23,69 -55,90 -20,13 -38,26 -56,38 -78,54 -145,100 -206,100l-347 0 -229 0c-2,31 -7,73 -18,92 -49,120 -182,251 -278,343l-2 1c-30,22 -58,41 -87,60 -50,33 -100,66 -141,107 -29,29 -49,56 -62,85 -12,29 -17,61 -17,102l0 36 -36 0c-21,0 -37,0 -54,-2 -16,-2 -32,-4 -53,-9 -144,-30 -261,-127 -300,-270 -11,-39 -14,-81 -14,-132 0,-36 6,-75 16,-112 23,-88 62,-150 111,-211 -34,39 -68,73 -103,146 -18,-9 -47,-44 -72,-88 -25,-44 -42,-98 -30,-149l-356 0 -347 0c-60,0 -128,-47 -206,-100 -17,-12 -35,-24 -56,-38 -31,-21 -47,-53 -55,-90 -7,-32 -7,-65 -7,-95l0 -205c0,-29 0,-61 7,-91 7,-35 22,-66 50,-87 54,-41 103,-76 145,-100 47,-27 87,-44 120,-44zm213 173l339 0c10,-6 23,-5 40,-4l9 0c111,-3 219,-4 330,-4l-5 8 739 0 1 -3 93 3 0 1 476 0c101,0 184,83 184,184l0 132c0,101 -83,184 -184,184l-2022 0c-101,0 -184,-83 -184,-184l0 -132c0,-101 83,-184 184,-184zm1356 -173l62 0 -2 -9 0 0c-4,-18 -12,-35 -20,-51 -11,22 -26,42 -40,60zm-632 905l2 -3c0,0 0,0 -1,0l-2 2zm-6 -54l-167 0c-2,32 15,87 30,114 7,13 15,25 22,34 5,-7 9,-14 13,-20 22,-32 71,-92 101,-128zm-310 -479c7,28 28,62 39,70 8,-18 17,-37 27,-55 18,-33 38,-65 51,-86 17,-26 32,-47 47,-64l-8 0c-58,1 -112,1 -170,0 -3,23 5,116 15,135zm271 -147c-8,13 -16,27 -22,35 -6,7 -12,14 -18,20 -26,27 -54,71 -78,118l0 0c-26,51 -48,104 -58,145 -5,19 -10,43 -11,53 0,11 0,19 -1,26l531 0 0 -20c39,-29 72,-31 113,-56 161,-82 184,-131 281,-286l14 -35 -751 0zm-259 398c2,-32 6,-70 13,-96l2 -8c-119,-64 -117,-182 -116,-294l-282 0c-98,0 -177,66 -177,146l0 105c0,81 80,146 177,146l383 0zm136 -622l642 0c18,-25 50,-69 57,-78 45,-61 113,-153 113,-285 0,-23 -3,-47 -9,-69 -6,-27 -16,-51 -25,-70 -11,-22 -21,-39 -33,-55 -11,-15 -25,-30 -42,-47 -28,-28 -74,-65 -120,-95 -23,-15 -46,-29 -66,-38l-68 221c-70,156 -189,298 -316,413 -23,21 -95,74 -132,103zm983 851l-676 0c-17,17 -35,39 -45,49 -77,97 -134,147 -167,270 -8,32 -13,64 -13,94 0,45 3,81 12,113 31,117 127,194 245,218 19,4 33,6 45,8l13 1c3,-35 10,-65 22,-94 16,-38 41,-72 77,-107 46,-46 100,-81 153,-116 28,-19 57,-37 82,-56l101 -97c13,-17 22,-28 31,-39 15,-17 29,-35 57,-76 10,-16 20,-33 29,-49 9,-18 17,-36 25,-54 7,-17 10,-31 11,-43 0,-4 0,-9 0,-14 0,-3 -1,-5 -2,-7zm7 -229c12,-233 -56,-374 -57,-376 -44,125 -186,314 -332,376l389 0zm19 -398c25,95 58,294 47,398l373 0c98,0 177,-66 177,-146l0 -105c0,-81 -80,-146 -177,-146l-420 0zm294 -152l-1724 0 -347 0c-20,0 -48,13 -84,34 -40,24 -87,57 -139,96 -12,9 -19,26 -23,45 -5,23 -5,51 -5,77l0 205c0,27 0,56 5,80 4,19 11,36 24,45 18,12 38,26 57,39 68,47 127,88 165,88l347 0 1724 0 347 0c38,0 97,-41 165,-88 19,-13 39,-27 57,-39 13,-9 20,-25 24,-45 5,-24 5,-54 5,-80l0 -205c0,-26 0,-54 -5,-77 -4,-19 -11,-35 -23,-45 -52,-39 -99,-72 -139,-96 -36,-21 -65,-34 -84,-34l-347 0z"/>
  </g>
 </g>
</svg>
