<?xml version="1.0" standalone="no"?>
<!DOCTYPE svg PUBLIC "-//W3C//DTD SVG 20010904//EN"
 "http://www.w3.org/TR/2001/REC-SVG-20010904/DTD/svg10.dtd">
<svg version="1.0" xmlns="http://www.w3.org/2000/svg"
 width="946.000000pt" height="946.000000pt" viewBox="0 0 946.000000 946.000000"
 preserveAspectRatio="xMidYMid meet">
<metadata>
Created by potrace 1.14, written by Peter Selinger 2001-2017
</metadata>
<g transform="translate(0.000000,946.000000) scale(0.100000,-0.100000)"
fill="#000000" stroke="none">
<path d="M4253 8953 c9 -2 25 -2 35 0 9 3 1 5 -18 5 -19 0 -27 -2 -17 -5z"/>
<path d="M4875 8950 c-3 -6 1 -7 9 -4 18 7 21 14 7 14 -6 0 -13 -4 -16 -10z"/>
<path d="M4538 8944 c-4 -4 -94 -8 -200 -9 -106 -1 -208 -6 -227 -10 -24 -6
-32 -5 -27 3 4 8 -3 8 -26 1 -42 -11 -71 -11 -43 1 15 7 16 9 4 9 -9 1 -22 -6
-29 -14 -7 -9 -19 -14 -26 -11 -8 3 -26 1 -41 -4 -15 -5 -59 -11 -98 -14 -83
-6 -239 -36 -350 -66 -44 -12 -94 -23 -112 -26 -17 -2 -52 -11 -78 -19 -25 -9
-56 -13 -68 -10 -17 5 -19 4 -7 -4 15 -11 13 -12 -53 -15 -10 -1 -21 -6 -25
-11 -4 -6 -61 -28 -127 -49 -66 -22 -130 -46 -142 -54 -13 -8 -30 -12 -38 -8
-19 7 -47 -3 -39 -15 7 -12 -36 -28 -55 -21 -9 3 -12 1 -7 -6 8 -13 -25 -24
-50 -16 -16 5 -17 4 -4 -6 13 -10 11 -11 -7 -7 -13 3 -26 0 -30 -5 -4 -7 -1
-8 7 -3 9 5 11 4 6 -3 -4 -7 -14 -12 -22 -12 -8 0 -12 5 -9 10 4 6 -7 10 -27
10 -33 -1 -33 -1 -9 -14 15 -8 20 -16 12 -20 -6 -4 -11 -5 -11 -2 0 3 -9 -3
-21 -15 -11 -11 -27 -18 -35 -15 -19 7 -107 -31 -99 -44 4 -6 -1 -7 -11 -3
-11 4 -15 3 -10 -5 9 -15 -75 -65 -89 -51 -7 7 -5 13 5 19 13 8 13 10 -2 10
-20 0 -36 -22 -20 -28 7 -2 12 -8 12 -14 0 -6 -7 -8 -15 -5 -8 4 -17 1 -21 -5
-5 -7 -2 -8 6 -3 9 5 11 4 6 -4 -4 -6 -16 -9 -27 -6 -13 4 -19 2 -19 -9 0 -9
-4 -16 -9 -16 -5 0 -37 -22 -72 -50 -35 -27 -68 -50 -74 -50 -5 0 -3 5 5 10
18 12 2 12 -25 0 -13 -6 -15 -9 -5 -9 13 -1 13 -2 0 -11 -8 -5 -19 -5 -25 0
-6 5 -17 5 -25 -1 -11 -8 -12 -12 -3 -16 19 -7 -57 -75 -76 -68 -8 3 -12 3 -9
-1 4 -4 -9 -20 -29 -35 -20 -16 -39 -27 -42 -24 -3 4 1 11 9 16 13 9 12 10 -2
5 -10 -3 -20 -1 -23 4 -4 6 -1 10 6 10 7 0 10 2 7 6 -3 3 -21 -4 -39 -15 -18
-11 -37 -17 -42 -14 -6 3 -7 1 -3 -5 5 -9 13 -9 26 -2 26 14 34 12 21 -4 -8
-10 -9 -16 -1 -21 16 -10 12 -25 -5 -18 -9 3 -15 2 -13 -3 4 -12 -40 -56 -59
-58 -9 -2 -40 -27 -71 -57 -31 -30 -49 -45 -42 -34 14 18 14 19 -2 6 -10 -7
-16 -17 -13 -21 7 -12 -95 -101 -107 -94 -10 6 -58 -33 -58 -48 0 -5 12 2 27
16 15 14 29 23 32 20 12 -11 -68 -74 -86 -68 -14 4 -15 3 -5 -4 11 -8 10 -14
-9 -31 -23 -21 -42 -20 -21 1 15 15 15 25 -1 31 -9 3 -12 -6 -11 -31 1 -30 -7
-45 -46 -87 -50 -54 -147 -169 -193 -229 -16 -20 -32 -34 -37 -31 -6 3 -7 -1
-4 -9 7 -19 -7 -21 -24 -4 -8 8 -12 9 -12 1 0 -6 5 -13 12 -15 7 -3 8 -10 4
-17 -7 -11 -10 -11 -18 0 -7 10 -8 8 -4 -7 4 -14 -2 -30 -20 -50 -14 -16 -32
-42 -39 -59 -7 -16 -16 -29 -19 -27 -15 6 -23 0 -40 -28 -9 -17 -22 -27 -28
-24 -7 4 -8 2 -4 -5 4 -6 12 -9 17 -6 14 9 11 -5 -5 -21 -11 -10 -15 -11 -19
-1 -2 6 -4 -3 -4 -21 0 -36 -16 -53 -42 -45 -13 4 -14 3 -2 -5 12 -9 10 -17
-13 -52 -15 -22 -32 -38 -37 -34 -7 4 -6 -2 1 -16 7 -12 7 -20 2 -16 -21 13
-42 -5 -37 -32 5 -31 -4 -49 -17 -31 -6 10 -7 7 -3 -10 5 -15 2 -26 -6 -31 -7
-5 -14 -16 -15 -25 -1 -9 -9 -24 -17 -33 -8 -10 -18 -28 -22 -42 -4 -14 -14
-36 -23 -50 -9 -14 -17 -32 -19 -40 -1 -8 -6 -16 -12 -18 -5 -2 -7 -10 -4 -19
4 -11 3 -14 -6 -9 -8 5 -11 3 -9 -5 1 -8 -7 -34 -18 -59 -12 -25 -29 -62 -38
-82 -9 -21 -24 -55 -33 -75 -9 -20 -18 -44 -18 -52 -3 -32 -29 -90 -38 -84 -5
3 -6 -4 -2 -18 7 -23 7 -24 -9 -4 -17 23 -22 5 -6 -25 7 -13 7 -21 0 -25 -5
-3 -10 -14 -10 -24 0 -10 -7 -24 -15 -31 -9 -8 -13 -21 -9 -32 3 -11 -4 -37
-16 -60 -11 -22 -19 -47 -16 -54 3 -8 1 -14 -5 -14 -6 0 -8 -3 -6 -7 6 -10
-26 -169 -36 -179 -4 -4 -7 -18 -7 -30 0 -35 -32 -174 -39 -170 -6 4 -9 -28
-11 -119 -1 -27 -5 -63 -11 -80 -5 -16 -11 -72 -14 -124 -4 -52 -8 -98 -11
-102 -6 -11 -6 -522 1 -584 2 -27 7 -81 9 -120 9 -139 64 -488 86 -540 4 -11
15 -58 25 -104 9 -46 20 -91 25 -100 23 -48 71 -224 65 -244 -5 -17 -4 -19 4
-7 10 13 11 13 12 0 1 -8 1 -19 0 -23 -1 -5 7 -23 17 -40 11 -18 29 -61 42
-97 13 -36 29 -73 36 -84 7 -10 10 -24 8 -31 -3 -6 2 -18 11 -25 8 -7 15 -16
15 -21 0 -5 11 -33 26 -62 14 -28 26 -65 26 -80 1 -18 4 -24 9 -15 5 8 11 3
19 -17 6 -17 17 -42 25 -58 9 -19 10 -26 2 -21 -7 3 -4 -1 5 -9 10 -8 18 -20
18 -26 0 -7 5 -9 10 -6 6 3 10 1 10 -6 0 -14 131 -236 170 -289 15 -19 34 -52
44 -73 9 -20 21 -35 26 -32 14 8 22 -28 8 -38 -9 -6 -8 -7 4 -3 12 4 22 -3 32
-22 8 -15 23 -36 33 -47 10 -11 36 -42 57 -68 33 -40 37 -50 25 -58 -11 -8
-10 -9 6 -7 14 2 20 -2 19 -14 -1 -9 4 -14 10 -12 7 3 27 -13 45 -36 17 -22
28 -40 22 -40 -5 0 -12 6 -14 13 -4 9 -6 9 -6 0 -1 -6 8 -19 20 -27 14 -9 18
-19 13 -28 -6 -10 -4 -10 9 1 12 9 17 10 17 2 0 -7 4 -10 9 -7 4 3 13 -5 19
-18 8 -19 8 -25 -3 -30 -8 -3 -13 -14 -12 -25 0 -11 5 -18 9 -15 4 3 4 12 1
21 -4 11 -2 14 8 11 8 -3 13 -10 12 -16 -1 -6 9 -9 22 -7 13 1 22 -1 20 -6 -3
-4 3 -12 12 -18 11 -6 13 -11 5 -11 -7 0 -10 -5 -7 -11 4 -6 13 -8 19 -6 7 3
30 -12 51 -34 21 -21 32 -39 25 -39 -10 0 -10 -3 0 -15 14 -17 35 -21 25 -5
-3 6 -4 10 -2 10 3 0 14 -16 26 -36 12 -19 16 -32 9 -28 -7 4 -8 3 -4 -4 4 -7
14 -12 23 -12 9 0 13 -6 9 -15 -4 -13 -2 -13 14 -5 25 13 31 13 28 -2 -2 -7
11 -19 29 -27 17 -8 34 -22 36 -33 3 -10 9 -18 14 -17 14 4 43 -13 38 -21 -3
-5 3 -11 13 -14 10 -3 23 -19 29 -36 6 -16 16 -30 23 -30 7 0 5 6 -4 16 -16
15 -20 24 -12 24 2 0 21 -15 43 -32 27 -24 38 -41 38 -59 -1 -18 3 -25 12 -22
16 6 17 20 1 26 -8 4 -7 6 3 6 9 1 22 -6 29 -14 7 -9 34 -29 59 -46 25 -17 50
-38 54 -45 4 -8 14 -14 21 -14 7 0 23 -10 36 -22 14 -13 26 -22 27 -20 2 1 6
2 11 2 4 0 0 -5 -8 -11 -12 -9 -12 -10 3 -5 23 7 80 -31 71 -46 -4 -7 -2 -8 4
-4 18 11 37 -4 21 -16 -11 -7 -9 -9 6 -7 11 1 23 0 28 -1 4 -1 10 -3 15 -5 25
-7 41 -18 36 -26 -3 -5 1 -7 8 -4 7 3 24 -4 38 -15 21 -17 21 -19 5 -14 -16 5
-17 4 -5 -5 8 -6 24 -11 35 -11 19 -1 75 -42 75 -56 0 -3 -8 -3 -17 1 -14 5
-15 3 -7 -5 9 -9 17 -9 33 -1 24 13 77 -10 151 -66 28 -22 52 -32 64 -29 10 3
32 -2 47 -10 16 -8 31 -14 34 -14 16 1 65 -33 59 -41 -4 -7 0 -9 12 -5 19 6
119 -26 110 -35 -3 -3 3 -5 12 -6 44 -3 220 -69 201 -75 -8 -3 2 -5 21 -6 52
-1 70 -5 65 -13 -3 -4 16 -10 42 -14 47 -7 47 -7 23 -21 -30 -16 -22 -18 16
-4 20 8 42 6 88 -5 33 -9 75 -18 91 -20 65 -9 181 -40 193 -52 7 -7 23 -13 35
-12 21 1 20 2 -3 10 -20 7 -17 8 15 4 22 -3 49 -5 60 -6 l20 0 -20 -9 c-13 -6
-5 -7 25 -3 25 3 81 -1 125 -7 118 -18 131 -19 357 -26 308 -10 550 11 368 31
-72 8 -109 13 -265 37 -71 10 -150 22 -175 25 -25 3 -63 11 -85 18 -22 8 -85
25 -140 39 -115 28 -137 35 -147 50 -5 8 -8 7 -8 -1 0 -6 -9 -9 -21 -6 -21 6
-21 6 2 20 l24 14 -25 -7 c-14 -4 -30 -9 -36 -11 -7 -2 -15 0 -19 6 -3 6 -16
11 -28 11 -18 0 -19 2 -7 10 11 8 8 9 -11 4 -19 -4 -49 4 -97 25 -39 17 -75
31 -82 31 -6 0 -28 9 -49 20 -21 10 -42 16 -46 12 -4 -4 -4 4 0 18 7 25 7 25
-10 5 -16 -20 -16 -20 -11 5 5 23 4 24 -9 6 -13 -17 -15 -17 -37 -2 -12 9 -17
16 -10 16 7 0 11 4 8 9 -4 5 0 12 6 14 8 4 9 6 2 6 -6 1 -17 -5 -24 -13 -13
-16 -35 -12 -64 13 -11 9 -16 11 -13 4 4 -6 -11 -2 -34 9 -22 10 -38 22 -35
25 12 12 -16 43 -37 42 l-22 -2 22 -4 c18 -3 43 -33 28 -33 -8 0 -48 23 -69
40 -17 13 -19 13 -11 0 7 -13 6 -13 -11 0 -10 9 -44 29 -74 44 -73 38 -79 44
-73 65 4 15 -1 17 -31 15 -20 -2 -36 1 -36 7 0 6 -4 7 -10 4 -6 -3 -7 1 -4 10
4 11 2 14 -9 9 -20 -7 -77 23 -73 39 1 6 1 8 -2 4 -5 -10 -53 20 -70 45 -7 10
-17 16 -22 13 -12 -7 -40 5 -40 17 0 6 6 5 15 -2 8 -7 15 -8 15 -3 0 5 -11 15
-25 21 -25 12 -34 32 -14 32 8 0 9 4 0 13 -6 8 -7 18 -3 22 4 5 1 5 -6 1 -7
-4 -10 -12 -7 -17 4 -5 -2 -9 -12 -9 -15 0 -16 -2 -3 -10 13 -8 13 -10 -1 -10
-29 0 -64 36 -64 66 0 16 -6 29 -15 31 -13 4 -13 3 0 -6 12 -9 13 -12 1 -20
-11 -7 -11 -9 0 -14 8 -3 9 -6 3 -6 -6 -1 -30 17 -54 39 -24 22 -38 40 -31 40
7 0 9 5 6 10 -9 15 -38 12 -29 -3 4 -7 3 -9 -2 -4 -5 5 -9 14 -9 20 0 7 -8 11
-18 11 -9 -1 -14 2 -11 7 3 5 0 9 -7 9 -6 0 -33 18 -59 40 -37 31 -47 45 -43
63 4 22 4 22 -13 2 -14 -17 -16 -17 -11 -2 4 9 2 18 -3 18 -6 1 -14 2 -18 3
-21 3 -85 70 -86 89 -1 15 -7 22 -22 22 -27 0 -66 34 -60 51 3 7 1 25 -3 41
-7 26 -8 27 -13 5 -3 -12 -2 -22 3 -22 5 0 9 -5 9 -10 0 -6 -8 -5 -20 2 -10 7
-17 14 -15 16 2 2 -10 16 -26 30 -17 15 -31 37 -32 50 -1 12 -5 22 -10 22 -5
0 -6 -8 -3 -17 3 -10 -12 2 -34 26 -22 24 -37 48 -33 55 8 12 11 22 15 50 4
24 -29 30 -37 7 -8 -26 -33 -22 -40 6 -3 13 -10 21 -15 18 -6 -3 -10 -3 -11 2
0 4 -2 19 -3 31 -3 24 -21 42 -43 42 -7 0 -10 7 -6 15 3 10 1 15 -7 13 -7 -2
-34 25 -61 60 -47 61 -62 91 -37 76 16 -10 48 -13 48 -5 0 4 -9 12 -20 18 -17
11 -18 10 -13 -5 6 -15 5 -15 -10 -4 -9 8 -21 11 -26 8 -9 -6 -37 32 -34 45 1
4 -7 15 -17 24 -21 19 -28 51 -8 39 7 -4 8 -3 4 4 -4 6 -12 9 -19 6 -17 -6
-49 50 -41 73 4 14 4 15 -4 4 -8 -11 -12 -10 -21 8 -7 11 -9 21 -7 21 3 0 -7
12 -22 27 -18 18 -22 28 -14 31 10 3 7 8 -6 18 -28 20 -72 101 -66 122 5 14 4
15 -5 2 -9 -13 -11 -13 -11 3 0 9 -4 17 -8 17 -5 0 -9 6 -9 13 0 6 -15 36 -33
65 -18 29 -30 55 -27 58 3 3 -15 43 -39 90 -23 46 -41 84 -39 84 2 0 -10 29
-26 65 -17 35 -27 70 -24 76 4 6 1 15 -6 20 -12 8 -12 11 1 19 12 9 12 10 -5
8 -15 -2 -21 4 -24 22 -1 14 -7 28 -13 31 -12 8 -14 68 -4 94 9 20 8 20 -6 1
-15 -19 -15 -19 -15 8 0 16 -6 32 -12 36 -7 4 -14 13 -15 21 -2 8 -5 21 -8 29
-13 37 -40 149 -45 184 -2 22 -10 51 -17 65 -14 27 -21 57 -32 126 -3 22 -8
44 -11 48 -3 5 -5 31 -5 58 1 28 -3 47 -9 44 -5 -3 -9 4 -9 17 1 13 -4 52 -10
88 -6 36 -9 73 -6 82 2 9 0 18 -4 20 -19 7 -38 559 -25 728 12 154 17 205 23
210 4 3 7 25 8 50 1 63 16 170 23 170 3 0 6 15 6 33 1 29 6 60 19 112 3 11 8
43 12 70 5 39 8 46 15 30 6 -16 8 -17 8 -3 1 9 4 25 7 35 5 15 4 16 -5 3 -9
-12 -10 -8 -5 15 4 17 10 40 15 51 4 12 5 24 2 27 -3 3 -1 12 3 19 5 7 10 22
11 33 2 11 10 37 18 58 8 20 11 37 7 37 -4 0 1 5 11 11 9 5 17 15 17 22 0 7
-4 6 -10 -3 -6 -9 -10 -10 -10 -3 0 7 10 22 23 34 12 12 16 18 8 14 -11 -6
-13 -4 -8 9 4 10 7 25 8 34 0 14 2 13 10 -3 8 -17 9 -16 5 8 -4 30 42 180 53
173 3 -2 11 2 18 9 7 8 8 15 3 17 -12 4 9 78 22 78 5 0 6 4 3 10 -8 14 26 70
38 63 6 -3 7 -1 3 6 -8 12 22 101 33 101 4 0 7 10 8 21 1 12 8 29 16 38 7 9
21 35 32 58 10 23 22 40 26 37 5 -3 9 2 9 12 0 19 60 127 67 120 2 -2 -1 -14
-7 -26 -10 -18 -9 -25 4 -38 10 -10 16 -12 16 -5 0 7 -5 15 -10 18 -8 5 -8 11
0 20 6 7 8 25 4 39 -4 16 -2 26 5 26 6 0 10 3 9 8 -4 15 23 52 34 46 7 -4 8
-3 4 4 -8 14 39 103 74 140 15 15 30 36 34 46 13 36 161 224 167 214 4 -6 10
4 14 22 4 20 10 28 14 21 6 -9 11 -8 20 3 7 8 10 19 7 25 -4 5 9 25 28 45 18
20 31 36 29 36 -2 0 3 7 12 16 9 9 19 13 23 10 3 -4 2 -10 -4 -14 -12 -9 -12
-31 1 -34 5 -2 10 13 10 32 0 41 23 80 42 73 9 -3 11 0 7 10 -3 10 2 18 15 22
12 3 19 10 16 15 -7 11 23 40 38 36 7 -1 8 -1 4 2 -5 2 -1 13 9 23 9 10 21 16
27 12 5 -3 7 -1 4 4 -8 13 102 125 114 117 5 -3 9 2 9 10 0 9 5 16 10 16 6 0
10 -5 10 -12 0 -16 11 -3 14 16 3 23 47 66 60 59 6 -3 8 -3 4 2 -10 10 11 37
23 29 5 -3 9 -1 9 4 0 5 17 22 37 38 20 15 33 22 28 14 -5 -9 -4 -11 3 -6 7 4
12 13 12 20 0 13 38 53 46 49 2 -2 3 -1 2 1 -2 3 20 20 47 38 28 18 56 38 63
45 21 21 52 34 62 28 5 -3 12 0 16 6 4 8 3 9 -4 5 -7 -4 -12 -3 -12 1 0 12
102 77 122 78 22 2 37 15 17 15 -8 0 11 16 41 35 57 36 76 43 64 23 -4 -7 -3
-8 4 -4 6 4 9 13 6 20 -5 13 23 29 53 30 7 1 13 6 14 11 1 9 74 48 91 50 4 0
12 5 19 12 6 6 18 9 27 6 10 -4 13 -2 8 5 -4 7 -3 12 3 12 5 0 12 -6 14 -12 4
-10 8 -10 16 2 5 8 8 17 6 20 -8 12 121 71 141 64 13 -4 15 -3 6 3 -17 13 32
36 62 28 11 -2 15 -2 8 1 -19 9 5 34 33 34 12 0 25 3 29 8 4 4 11 7 14 8 4 0
25 8 46 17 22 10 46 15 53 13 19 -8 43 4 43 21 0 13 3 13 15 3 13 -11 14 -10
10 2 -5 11 2 17 22 21 15 2 72 20 126 40 53 19 97 34 97 32 0 -2 34 7 77 20
42 13 88 21 103 18 16 -3 32 1 41 9 13 14 50 27 94 34 11 1 58 10 104 19 46 9
95 14 108 10 14 -3 22 -2 19 3 -7 12 175 42 294 49 54 3 127 0 170 -7 41 -6
107 -16 145 -20 39 -5 93 -14 120 -20 57 -13 89 -18 125 -19 15 -1 20 -4 14
-9 -7 -4 13 -8 45 -9 62 -3 172 -37 150 -47 -8 -3 -4 -3 8 0 12 3 48 -2 80
-11 32 -10 66 -17 76 -18 9 -1 17 -5 17 -9 0 -4 3 -7 8 -6 4 1 20 -2 35 -7 22
-6 26 -10 15 -17 -9 -6 -6 -7 9 -3 19 5 168 -37 228 -65 46 -21 114 -50 118
-50 3 0 48 -20 101 -45 58 -27 96 -51 96 -60 0 -8 5 -15 11 -15 5 0 7 5 4 10
-8 13 -4 13 39 -5 23 -10 34 -20 30 -27 -4 -7 -3 -8 4 -4 11 7 182 -81 182
-94 0 -3 9 -6 20 -7 11 -1 27 -9 36 -18 9 -8 34 -25 55 -36 21 -10 39 -22 39
-25 0 -3 -4 -3 -8 0 -4 2 -9 -4 -9 -15 -2 -17 0 -18 14 -4 14 14 17 14 37 0
11 -8 43 -29 69 -46 31 -21 46 -36 43 -46 -3 -8 -1 -11 4 -8 6 3 23 -3 39 -14
16 -12 34 -21 40 -21 6 0 11 -4 11 -8 0 -5 26 -26 57 -48 82 -56 93 -66 93
-89 0 -16 2 -17 10 -5 9 14 14 7 11 -13 -1 -5 3 -6 9 -2 13 8 91 -65 83 -78
-4 -6 -1 -7 6 -2 16 9 71 -42 65 -60 -3 -7 2 -15 11 -19 11 -4 14 -2 8 7 -4 6
20 -12 52 -41 79 -69 151 -153 147 -172 -2 -13 -2 -13 7 0 10 13 15 7 12 -13
0 -4 5 -6 11 -5 7 2 12 -3 10 -10 -1 -8 2 -11 7 -8 13 8 34 -21 25 -35 -5 -8
-3 -9 5 -5 17 11 44 -26 28 -37 -8 -6 -6 -7 5 -3 23 7 49 -20 41 -42 -3 -9 -3
-14 2 -10 11 11 36 -12 28 -25 -3 -5 -1 -7 4 -4 15 9 45 -27 47 -56 0 -14 5
-23 10 -19 5 3 6 -3 3 -14 -7 -18 -6 -18 7 -1 12 16 14 15 20 -14 4 -20 10
-28 17 -23 8 4 9 3 5 -5 -6 -9 -11 -9 -24 1 -14 12 -14 10 -3 -10 7 -12 16
-20 21 -17 15 10 41 -7 57 -39 10 -17 16 -35 15 -39 -1 -5 2 -6 7 -2 14 8 32
-30 25 -52 -4 -11 -3 -14 3 -6 6 8 19 -1 43 -30 19 -22 29 -38 22 -33 -7 4
-12 4 -12 -1 0 -4 -5 -15 -10 -23 -8 -13 -11 -12 -25 5 -16 20 -16 20 -6 -2
13 -25 52 -28 43 -3 -5 12 -3 13 10 3 8 -7 19 -9 23 -5 5 4 6 -1 2 -10 -3 -9
0 -19 9 -22 8 -3 14 -10 14 -17 0 -6 11 -25 25 -41 17 -21 24 -37 19 -50 -4
-14 -2 -18 5 -14 7 5 16 -4 22 -23 6 -17 14 -31 18 -31 12 0 9 -34 -3 -43 -7
-6 -5 -7 5 -4 9 3 20 2 25 -1 11 -9 44 -70 44 -84 0 -5 9 -21 20 -36 16 -20
18 -27 8 -34 -10 -6 -10 -8 -1 -8 16 0 46 -58 37 -72 -4 -7 -3 -8 4 -4 8 5 12
-2 12 -19 0 -14 4 -24 9 -21 4 3 6 -6 3 -21 -4 -21 -2 -25 11 -20 19 7 31 -20
21 -49 -4 -14 -3 -15 4 -6 7 11 10 10 16 -3 8 -22 8 -27 -2 -21 -4 2 -6 -11
-4 -31 3 -25 1 -34 -7 -29 -12 8 -15 -6 -4 -17 13 -14 33 16 28 42 l-5 26 11
-25 c30 -62 42 -93 42 -106 0 -8 4 -14 8 -14 4 0 6 -15 4 -32 -2 -18 -1 -27 2
-19 7 18 35 -59 28 -77 -3 -7 -1 -10 4 -7 11 6 44 -97 45 -142 0 -17 3 -30 7
-27 10 6 21 -45 13 -58 -5 -7 -2 -8 6 -3 10 6 12 4 7 -9 -4 -10 -7 -22 -7 -27
0 -6 -4 -8 -9 -5 -5 4 -7 -4 -4 -15 6 -20 7 -20 19 7 l13 29 -5 -27 c-4 -16
-2 -28 4 -28 11 0 38 -116 34 -149 -2 -13 4 -40 12 -61 8 -21 17 -56 20 -79 3
-23 7 -44 9 -49 5 -8 24 -155 33 -262 3 -36 7 -81 9 -100 10 -101 14 -404 6
-439 -6 -28 -6 -39 1 -34 7 4 9 -6 5 -28 -4 -19 -9 -65 -12 -104 -4 -38 -8
-95 -11 -125 -2 -30 -7 -71 -10 -90 -2 -19 -5 -41 -6 -47 -1 -7 -4 -13 -8 -13
-4 0 -8 -12 -8 -27 -1 -49 -3 -67 -14 -128 -10 -57 -14 -84 -17 -113 0 -7 -5
-11 -10 -8 -4 3 -6 -5 -4 -18 7 -37 -17 -142 -28 -125 -7 9 -8 0 -4 -26 5 -30
4 -36 -4 -25 -9 12 -11 9 -11 -13 0 -35 -27 -131 -47 -171 -8 -15 -10 -26 -5
-22 11 7 -15 -73 -30 -92 -6 -7 -8 -15 -5 -18 3 -3 -1 -22 -10 -42 -8 -20 -16
-43 -18 -51 -7 -32 -66 -152 -73 -147 -4 2 -7 -10 -6 -27 0 -38 -13 -70 -27
-62 -5 4 -9 -5 -9 -19 0 -14 -10 -35 -22 -47 -13 -12 -17 -18 -9 -14 11 6 13
4 8 -9 -4 -10 -7 -20 -7 -22 0 -3 -5 -2 -12 2 -6 4 -8 3 -5 -4 10 -15 -3 -42
-19 -42 -8 0 -14 -5 -14 -11 0 -5 5 -7 11 -4 6 4 -1 -16 -16 -44 -16 -32 -30
-49 -37 -45 -8 5 -9 2 -5 -9 6 -17 -57 -147 -72 -147 -4 0 -8 -6 -8 -13 0 -17
-56 -102 -95 -143 -16 -17 -28 -36 -26 -41 3 -10 -86 -145 -115 -175 -7 -7
-27 -35 -45 -62 -17 -27 -32 -44 -32 -38 0 7 -4 12 -10 12 -5 0 -7 -6 -4 -14
3 -9 -3 -17 -15 -21 -12 -3 -21 -11 -21 -16 0 -6 5 -7 11 -4 6 4 5 -2 -3 -14
-7 -12 -17 -21 -22 -21 -4 0 -2 8 5 17 11 16 11 16 -1 5 -8 -7 -15 -16 -15
-20 0 -14 -47 -82 -56 -82 -5 0 -12 7 -16 17 -5 14 -8 13 -15 -7 -5 -13 -6
-25 -3 -28 3 -3 5 0 5 6 0 7 5 12 11 12 17 0 8 -13 -49 -76 -91 -102 -94 -105
-110 -91 -12 10 -14 8 -8 -9 7 -22 -28 -69 -45 -59 -5 4 -9 0 -9 -8 0 -7 -16
-27 -35 -44 -19 -17 -35 -29 -35 -25 0 3 -7 -3 -16 -14 -8 -10 -13 -14 -10 -7
4 7 -1 11 -13 10 -15 -1 -17 -5 -11 -18 7 -12 3 -22 -15 -39 -20 -19 -27 -21
-40 -10 -11 9 -15 9 -15 1 0 -7 -4 -9 -10 -6 -5 3 -10 2 -10 -4 0 -5 5 -13 10
-16 16 -10 1 -25 -17 -18 -9 4 -14 2 -11 -3 4 -5 1 -16 -5 -24 -17 -21 -88
-75 -111 -83 -10 -4 -16 -10 -12 -14 9 -10 -63 -55 -76 -47 -6 4 -8 3 -5 -3 6
-9 -29 -42 -72 -68 -10 -6 -12 -4 -7 6 4 8 -1 4 -10 -8 -9 -13 -23 -23 -32
-23 -8 0 -12 -3 -9 -7 4 -3 -8 -16 -26 -28 -22 -16 -34 -19 -39 -11 -6 8 -8 7
-8 -1 0 -7 -7 -13 -17 -13 -9 0 -13 -3 -10 -7 10 -9 -53 -53 -77 -53 -10 0
-16 -3 -13 -6 10 -10 -186 -126 -217 -130 -6 0 -20 -2 -31 -3 -14 -1 -16 -4
-7 -9 8 -6 -9 -18 -50 -37 -35 -17 -67 -28 -72 -27 -5 2 -16 -3 -25 -11 -29
-25 -103 -56 -119 -50 -9 4 -13 2 -9 -4 9 -14 -98 -54 -120 -46 -12 5 -14 3
-8 -7 6 -10 2 -11 -19 -6 -20 5 -26 4 -20 -5 4 -7 3 -9 -3 -6 -5 3 -17 -2 -25
-13 -9 -10 -41 -23 -71 -30 -30 -6 -78 -20 -108 -32 -30 -11 -70 -24 -89 -28
-19 -5 -61 -15 -93 -24 -65 -18 -80 -20 -73 -8 3 5 -9 6 -27 3 -29 -4 -30 -5
-9 -10 19 -5 12 -9 -35 -22 -32 -9 -89 -22 -128 -28 -211 -33 -250 -38 -285
-37 -21 1 -36 -2 -33 -6 2 -5 -2 -8 -9 -9 -182 -11 -187 -25 -11 -34 126 -7
429 -1 528 10 22 2 65 6 95 9 30 3 107 12 172 20 64 9 125 13 135 10 12 -4 14
-3 6 3 -8 5 16 15 65 26 42 9 122 27 177 39 55 12 116 21 135 21 25 -1 30 0
16 6 -16 6 -11 10 26 20 25 7 57 14 71 14 14 1 23 5 21 9 -2 3 20 12 49 19 61
14 64 15 97 5 24 -8 24 -7 6 7 -19 14 -19 15 12 31 18 9 37 14 42 11 6 -3 10
-1 10 4 0 7 14 9 35 5 35 -5 77 9 72 26 -1 5 15 18 35 28 21 11 35 15 31 8 -3
-6 2 -4 13 5 18 14 68 39 80 39 3 0 2 -5 -2 -12 -4 -7 -3 -8 5 -4 6 4 9 11 6
16 -5 8 50 35 59 29 2 -2 12 3 22 12 29 25 52 29 68 14 7 -8 16 -11 20 -8 3 3
-2 12 -12 20 -9 8 -11 12 -4 8 6 -3 12 -1 12 5 0 7 7 9 16 6 8 -3 12 -2 9 4
-3 5 6 12 20 16 13 3 23 9 21 13 -2 3 13 14 35 23 21 9 39 12 39 7 0 -5 -8 -9
-17 -10 -11 0 -13 -3 -6 -6 7 -2 24 4 38 15 17 13 21 22 13 24 -7 3 3 12 22
22 28 13 31 14 16 1 -11 -8 -15 -15 -9 -15 5 0 18 10 29 21 33 37 184 131 200
125 10 -4 13 -2 8 6 -5 8 -2 9 9 5 19 -7 33 8 17 18 -7 4 1 14 19 23 17 10 41
26 54 38 13 11 38 29 55 40 18 10 32 21 32 25 0 4 10 5 23 2 16 -3 18 -2 8 5
-10 8 -7 15 19 33 18 13 36 23 41 21 5 -1 9 2 9 8 0 5 7 10 16 10 8 0 12 5 9
11 -4 6 2 13 14 16 11 3 19 9 16 13 -7 11 73 72 85 65 6 -3 10 0 10 7 0 18 64
80 73 72 4 -4 7 -2 7 5 0 13 24 41 35 41 4 0 5 -7 2 -14 -9 -22 16 -9 32 17
13 20 13 21 -3 8 -9 -8 -19 -11 -23 -7 -3 3 23 35 58 70 96 96 173 178 192
206 9 13 17 21 17 16 0 -5 10 -1 22 10 20 18 21 18 15 1 -4 -11 -3 -16 3 -12
6 4 8 18 6 32 -4 19 -2 23 11 19 12 -5 13 -4 5 7 -15 18 -3 30 14 16 10 -8 12
-5 9 14 -6 31 21 59 36 36 6 -10 9 -8 9 12 0 29 29 76 30 47 0 -9 -6 -19 -12
-21 -8 -4 -7 -6 4 -6 9 -1 19 -7 22 -13 7 -15 -1 34 -10 55 -7 20 22 47 44 41
13 -5 14 -4 4 4 -11 8 -9 17 13 51 15 22 31 38 36 35 5 -3 12 2 15 10 3 9 10
13 15 10 5 -3 6 2 3 11 -8 19 56 126 69 118 6 -3 7 -1 3 5 -8 14 24 73 36 66
4 -3 8 0 8 6 0 6 5 8 13 4 7 -5 6 -1 -3 10 -13 16 -12 20 6 35 11 9 20 18 20
21 0 3 12 30 27 59 15 30 27 48 27 40 0 -7 9 4 19 26 11 22 20 34 20 26 1 -8
4 -11 7 -8 4 4 2 12 -4 19 -7 9 -6 19 5 33 15 19 15 19 8 -5 -4 -14 -4 -21 1
-17 4 4 9 20 10 35 3 53 3 54 27 47 14 -4 17 -3 9 3 -12 8 -7 25 40 132 6 14
13 32 14 40 2 8 7 16 13 18 5 2 7 10 4 18 -3 8 0 14 6 14 6 0 10 3 9 8 -2 11
28 107 43 134 13 23 15 29 18 49 0 5 5 7 11 4 10 -6 26 42 17 52 -4 3 0 21 8
40 8 19 12 40 8 46 -3 5 -1 7 4 4 6 -4 11 4 11 18 0 13 7 31 16 40 18 18 21
30 6 20 -5 -3 -10 -1 -10 5 0 6 7 13 15 16 8 4 13 10 10 14 -3 5 6 55 20 112
64 267 75 320 75 350 0 47 11 83 20 67 5 -6 7 17 5 51 -1 35 2 77 7 94 13 45
25 257 27 476 1 158 -12 407 -28 550 -5 41 -6 82 -4 90 4 12 3 12 -5 2 -8 -12
-18 34 -35 163 -3 17 -12 58 -21 93 -10 34 -18 76 -18 92 -1 17 -4 30 -8 30
-4 0 -10 19 -14 43 -15 103 -19 117 -28 117 -6 0 -8 11 -6 25 3 13 2 22 -2 20
-5 -3 -11 2 -14 11 -9 24 -7 31 4 14 7 -11 10 -11 10 -2 0 7 -7 24 -16 38 -23
34 -73 185 -67 201 3 7 0 13 -7 13 -7 0 -10 7 -6 15 3 8 2 15 -3 15 -9 0 -29
42 -35 75 -2 11 -7 27 -11 36 -3 9 1 23 10 33 9 9 11 16 5 16 -6 0 -13 -7 -16
-15 -4 -8 -10 -15 -15 -15 -4 0 -5 7 -2 17 4 11 3 14 -5 9 -12 -7 -17 10 -14
47 1 10 -2 16 -6 13 -5 -3 -20 18 -33 47 -13 29 -27 54 -31 55 -5 2 -8 9 -8
15 0 7 -9 29 -20 50 -13 23 -18 47 -15 60 4 15 3 18 -3 9 -13 -19 -55 49 -45
74 4 12 3 15 -5 10 -8 -4 -16 3 -22 20 -6 15 -18 34 -28 41 -9 8 -11 11 -3 7
17 -9 9 6 -32 58 -17 22 -26 41 -22 49 5 7 4 10 -2 6 -6 -4 -21 15 -34 43 -13
27 -26 47 -30 44 -4 -2 -10 4 -13 14 -4 10 -14 27 -24 38 -34 36 -107 149
-104 161 1 6 -5 18 -15 25 -27 20 -46 58 -31 59 7 0 -2 5 -21 11 -23 6 -30 12
-22 17 9 6 8 11 -5 22 -12 9 -15 10 -10 2 4 -7 2 -13 -3 -13 -6 0 -11 3 -11 8
0 4 -29 39 -65 77 -36 39 -63 76 -60 83 3 7 1 11 -4 8 -4 -3 -16 3 -25 13 -10
10 -14 21 -9 23 4 3 2 3 -4 2 -20 -5 -54 37 -47 58 3 10 1 18 -5 18 -6 0 -11
-5 -11 -11 0 -5 -5 -7 -10 -4 -6 4 -7 11 -4 17 4 6 3 8 -2 5 -16 -9 -36 9 -39
34 -1 13 -3 28 -4 32 0 5 -9 6 -19 3 -21 -7 -66 30 -56 46 4 6 3 9 -2 5 -14
-8 -47 20 -38 34 5 8 3 10 -5 4 -18 -11 -85 56 -68 68 8 6 6 7 -6 3 -18 -6
-36 7 -106 74 -14 14 -35 30 -45 35 -11 6 -22 17 -24 25 -4 11 2 9 19 -5 l24
-20 -19 23 c-12 14 -29 22 -42 20 -29 -4 -70 32 -52 45 9 6 8 7 -5 3 -21 -7
-79 32 -70 47 3 6 1 7 -5 3 -15 -9 -90 46 -84 62 3 9 -3 12 -14 10 -11 -2 -20
3 -20 12 -1 8 -2 21 -3 28 0 6 -6 12 -12 12 -8 0 -8 -4 0 -14 9 -11 8 -15 -4
-20 -11 -4 -14 -2 -9 6 5 8 2 9 -10 5 -13 -5 -17 -3 -13 7 3 8 -1 17 -9 20 -9
4 -12 2 -8 -5 3 -6 -7 -4 -22 5 -52 27 -84 52 -77 59 3 4 -1 8 -10 8 -36 3
-68 19 -61 30 3 5 -1 7 -8 4 -7 -2 -29 5 -48 15 -19 11 -53 28 -75 39 -22 11
-34 21 -27 21 7 0 27 -7 43 -16 17 -8 33 -13 36 -11 2 3 -10 11 -26 18 -17 8
-31 18 -31 23 0 4 -11 5 -25 2 -25 -6 -88 20 -80 33 2 3 -7 6 -18 7 -25 1
-130 45 -135 57 -2 4 -13 7 -23 7 -11 0 -17 5 -14 10 3 6 -4 10 -17 10 -18 0
-20 2 -8 10 9 6 10 10 3 10 -6 0 -14 -4 -17 -9 -4 -5 -24 -1 -46 10 -21 10
-48 19 -59 19 -11 0 -22 4 -25 9 -3 5 -45 21 -93 36 -49 15 -92 30 -98 34 -5
3 -12 6 -15 6 -35 5 -69 18 -65 25 3 5 0 12 -6 16 -8 5 -9 3 -4 -6 6 -10 1
-12 -26 -6 -18 3 -37 13 -42 21 -4 8 -13 15 -20 15 -7 0 -6 -4 3 -11 12 -8 11
-9 -5 -5 -11 3 -44 10 -73 16 -29 5 -98 20 -155 34 -94 22 -200 41 -287 52
-19 2 -51 7 -70 10 -19 3 -53 8 -75 9 -22 2 -74 7 -115 10 -41 4 -91 8 -110 9
-19 1 -48 6 -65 9 -23 6 -25 5 -10 -2 16 -8 12 -10 -22 -10 -24 -1 -43 3 -43
8 0 6 -10 8 -22 5 -13 -2 -86 -6 -163 -8 -77 -2 -151 -7 -165 -10 -25 -7 -168
6 -205 19 -11 3 -24 3 -27 -1z m-988 -304 c0 -5 -5 -10 -11 -10 -5 0 -7 5 -4
10 3 6 8 10 11 10 2 0 4 -4 4 -10z m-1074 -175 c-20 -15 -36 -19 -36 -10 0 5
38 23 50 24 3 0 -4 -6 -14 -14z m-641 -395 c-3 -5 -11 -10 -16 -10 -6 0 -7 5
-4 10 3 6 11 10 16 10 6 0 7 -4 4 -10z m-45 -5921 c0 -6 -4 -7 -10 -4 -5 3
-10 11 -10 16 0 6 5 7 10 4 6 -3 10 -11 10 -16z m360 -389 c0 -5 -2 -10 -4
-10 -3 0 -8 5 -11 10 -3 6 -1 10 4 10 6 0 11 -4 11 -10z m4460 -910 c0 -5 -8
-10 -17 -10 -15 0 -16 2 -3 10 19 12 20 12 20 0z"/>
<path d="M4598 8943 c6 -2 18 -2 25 0 6 3 1 5 -13 5 -14 0 -19 -2 -12 -5z"/>
<path d="M4728 8943 c7 -3 16 -2 19 1 4 3 -2 6 -13 5 -11 0 -14 -3 -6 -6z"/>
<path d="M5820 8886 c0 -2 7 -7 16 -10 8 -3 12 -2 9 4 -6 10 -25 14 -25 6z"/>
<path d="M4435 8860 c-13 -5 -14 -9 -5 -9 8 0 24 4 35 9 13 5 14 9 5 9 -8 0
-24 -4 -35 -9z"/>
<path d="M5890 8866 c0 -2 13 -6 29 -8 17 -2 28 -1 25 4 -5 8 -54 12 -54 4z"/>
<path d="M4957 8853 c-3 -5 9 -9 26 -10 26 -1 28 0 12 7 -26 11 -33 12 -38 3z"/>
<path d="M5038 8853 c6 -2 18 -2 25 0 6 3 1 5 -13 5 -14 0 -19 -2 -12 -5z"/>
<path d="M3453 8843 c9 -2 25 -2 35 0 9 3 1 5 -18 5 -19 0 -27 -2 -17 -5z"/>
<path d="M3265 8800 c-13 -6 -15 -9 -5 -9 8 0 22 4 30 9 18 12 2 12 -25 0z"/>
<path d="M5373 8783 c9 -2 23 -2 30 0 6 3 -1 5 -18 5 -16 0 -22 -2 -12 -5z"/>
<path d="M3978 8763 c7 -3 16 -2 19 1 4 3 -2 6 -13 5 -11 0 -14 -3 -6 -6z"/>
<path d="M6288 8763 c7 -3 16 -2 19 1 4 3 -2 6 -13 5 -11 0 -14 -3 -6 -6z"/>
<path d="M3916 8751 c-4 -5 3 -7 14 -4 23 6 26 13 6 13 -8 0 -17 -4 -20 -9z"/>
<path d="M2954 8732 c5 -8 -1 -12 -16 -13 -18 -1 -19 -2 -4 -6 23 -6 43 12 25
22 -8 5 -10 4 -5 -3z"/>
<path d="M6510 8720 c0 -5 5 -10 10 -10 6 0 10 5 10 10 0 6 -4 10 -10 10 -5 0
-10 -4 -10 -10z"/>
<path d="M2985 8710 c-13 -6 -15 -9 -5 -9 8 0 22 4 30 9 18 12 2 12 -25 0z"/>
<path d="M6460 8710 c0 -5 5 -10 10 -10 6 0 10 5 10 10 0 6 -4 10 -10 10 -5 0
-10 -4 -10 -10z"/>
<path d="M5936 8609 c4 -8 -1 -9 -17 -5 -18 5 -20 5 -8 -3 8 -6 26 -7 38 -4
17 4 19 8 9 14 -19 12 -30 11 -22 -2z"/>
<path d="M6787 8599 c7 -7 15 -10 18 -7 3 3 -2 9 -12 12 -14 6 -15 5 -6 -5z"/>
<path d="M3478 8593 c7 -3 16 -2 19 1 4 3 -2 6 -13 5 -11 0 -14 -3 -6 -6z"/>
<path d="M6838 8553 c7 -3 16 -2 19 1 4 3 -2 6 -13 5 -11 0 -14 -3 -6 -6z"/>
<path d="M3315 8530 c-3 -5 -1 -10 4 -10 6 0 11 5 11 10 0 6 -2 10 -4 10 -3 0
-8 -4 -11 -10z"/>
<path d="M2409 8492 c9 -7 10 -11 2 -15 -7 -4 -8 -5 0 -3 15 2 13 20 -3 24
-10 3 -10 2 1 -6z"/>
<path d="M7015 8490 c3 -5 11 -10 16 -10 6 0 7 5 4 10 -3 6 -11 10 -16 10 -6
0 -7 -4 -4 -10z"/>
<path d="M4340 8474 c-110 -12 -301 -44 -455 -76 -71 -14 -398 -109 -410 -118
-23 -18 -164 -60 -181 -54 -13 4 -15 3 -6 -3 9 -7 1 -15 -30 -29 -23 -10 -45
-19 -48 -19 -3 -1 -24 -11 -46 -23 -23 -11 -44 -18 -48 -15 -3 4 -6 2 -6 -4 0
-14 -49 -35 -63 -27 -7 4 -9 4 -5 -1 5 -5 -9 -17 -30 -27 -20 -10 -52 -28 -70
-39 -28 -18 -35 -19 -50 -8 -15 13 -16 12 -4 -3 11 -14 10 -17 -8 -23 -12 -4
-64 -34 -114 -66 -64 -41 -99 -58 -112 -53 -14 4 -16 4 -5 -4 11 -8 4 -16 -30
-38 -24 -15 -49 -27 -56 -27 -7 0 -10 -4 -7 -8 7 -12 -43 -42 -57 -33 -7 4 -9
3 -6 -4 6 -9 -35 -46 -117 -106 -15 -11 -37 -29 -50 -40 -13 -12 -61 -55 -107
-96 -45 -41 -87 -74 -92 -72 -5 1 -6 -1 -3 -6 3 -5 -11 -25 -32 -45 -20 -19
-64 -62 -96 -96 -33 -34 -62 -59 -64 -56 -3 2 1 13 9 22 13 16 12 17 -4 4 -10
-8 -15 -21 -12 -31 3 -10 -4 -25 -16 -36 -12 -10 -53 -58 -91 -107 -38 -48
-74 -85 -79 -82 -5 4 -7 0 -4 -7 3 -7 -6 -26 -20 -42 -14 -16 -25 -33 -25 -38
0 -5 -5 -6 -12 -2 -6 4 -8 3 -5 -3 4 -6 -9 -31 -28 -56 -19 -25 -35 -48 -35
-50 0 -4 -73 -117 -98 -153 -14 -19 -33 -55 -114 -211 -84 -164 -121 -246
-167 -375 -16 -43 -31 -74 -35 -71 -4 4 -4 0 -1 -9 4 -9 1 -27 -6 -40 -7 -13
-14 -25 -14 -28 -1 -3 -5 -22 -9 -42 -5 -22 -12 -35 -19 -31 -5 3 -8 2 -5 -3
3 -5 -7 -58 -24 -119 -37 -138 -49 -185 -53 -210 -2 -11 -11 -61 -19 -112 -46
-267 -58 -417 -55 -698 2 -280 4 -316 12 -370 4 -22 9 -60 12 -85 3 -25 12
-83 20 -130 8 -47 17 -103 20 -125 4 -22 11 -57 16 -78 6 -21 12 -51 14 -67 2
-15 9 -38 15 -50 6 -12 9 -28 6 -36 -3 -8 -1 -14 3 -14 5 0 15 -24 21 -52 26
-108 107 -343 155 -446 14 -29 25 -55 25 -58 0 -3 14 -33 30 -66 17 -34 28
-68 25 -75 -2 -8 -1 -12 4 -9 5 3 27 -30 50 -74 45 -88 47 -95 29 -84 -8 4
-10 3 -5 -2 5 -5 13 -9 18 -9 6 0 18 -13 27 -30 9 -16 19 -32 22 -35 3 -3 16
-26 30 -52 13 -27 28 -48 32 -48 4 0 12 -10 19 -21 7 -15 8 -19 0 -15 -7 5 -9
1 -5 -8 3 -9 9 -14 13 -11 14 8 92 -121 85 -141 -5 -16 -4 -16 5 -4 9 13 13
11 28 -10 21 -31 178 -225 201 -249 76 -81 93 -102 86 -112 -5 -8 -3 -9 5 -5
15 10 54 -23 47 -40 -2 -6 3 -11 12 -10 10 1 16 -6 16 -16 -1 -10 3 -15 8 -12
14 9 50 -27 43 -43 -2 -8 0 -11 5 -8 6 4 29 -11 52 -32 60 -56 69 -63 134
-119 79 -67 272 -212 307 -230 16 -9 25 -20 21 -26 -5 -8 -2 -9 10 -5 10 4 24
-1 35 -12 10 -10 42 -31 72 -48 101 -55 154 -86 164 -93 15 -12 222 -115 280
-140 28 -11 59 -25 70 -30 71 -33 355 -129 455 -154 36 -9 90 -23 120 -31 30
-8 124 -26 209 -40 85 -14 157 -27 160 -29 6 -3 110 -14 201 -21 111 -8 526
-5 635 5 141 13 432 59 530 84 271 69 546 166 718 253 39 19 76 32 85 28 9 -3
13 -3 9 1 -9 10 62 46 75 38 7 -4 8 -3 4 4 -4 7 10 20 36 33 24 12 73 39 110
61 38 23 72 37 79 32 7 -4 9 -3 6 3 -4 6 32 36 81 69 48 31 90 62 93 67 4 5
12 6 19 2 9 -6 11 -4 5 5 -6 9 -1 10 16 5 16 -4 19 -3 11 3 -10 6 -1 19 35 48
26 21 48 37 48 34 0 -4 42 30 70 57 6 6 41 35 76 64 35 29 124 111 197 183 73
72 135 133 139 136 3 3 2 -6 -1 -20 -6 -21 -5 -22 4 -7 6 9 8 22 4 28 -3 6 9
27 28 47 46 48 203 244 217 271 7 13 18 18 29 15 13 -5 14 -4 3 4 -10 7 -3 24
36 78 28 38 58 84 69 101 10 18 25 33 34 33 11 0 12 2 2 8 -10 7 -8 14 8 35
11 14 27 42 36 62 13 32 17 35 32 23 15 -11 16 -11 4 3 -13 17 -6 53 8 44 4
-3 11 2 14 11 3 9 2 12 -5 8 -6 -3 1 12 15 35 14 22 26 43 26 46 0 3 27 60 59
127 32 68 66 143 74 168 15 44 27 75 53 137 8 17 14 38 14 48 0 10 5 13 12 9
7 -4 8 -3 4 4 -9 15 32 150 53 176 11 14 12 17 2 11 -10 -5 -12 -3 -7 11 6 19
43 162 51 199 5 19 15 78 35 195 40 230 62 750 40 910 -5 36 -11 94 -14 130
-3 36 -12 103 -21 150 -8 47 -22 123 -30 170 -8 47 -25 121 -37 165 -11 44
-21 88 -22 98 0 9 -4 17 -8 17 -4 0 -8 8 -8 18 0 23 -102 317 -141 406 -26 61
-132 278 -193 395 -10 20 -24 43 -32 52 -9 9 -12 24 -8 34 6 14 4 17 -8 12
-18 -6 -32 18 -21 36 3 7 3 9 -2 5 -4 -4 -31 30 -61 75 -29 45 -59 89 -67 97
-7 8 -33 43 -57 78 -23 34 -47 62 -51 62 -5 0 -9 6 -9 13 0 6 -15 28 -33 48
-53 58 -87 106 -79 113 3 4 -1 4 -10 1 -16 -7 -31 16 -32 49 -1 11 -8 21 -16
23 -13 4 -13 3 0 -6 8 -5 11 -13 6 -18 -11 -11 -76 65 -70 82 3 7 1 16 -5 20
-7 4 -8 -1 -4 -12 3 -10 -17 4 -45 31 -28 27 -48 54 -45 59 4 6 1 7 -6 2 -16
-9 -56 33 -56 59 0 11 -7 21 -15 23 -13 4 -13 3 0 -6 8 -5 11 -13 7 -17 -9 -9
-38 16 -32 27 3 4 -5 17 -17 28 -14 14 -17 21 -8 21 7 0 10 3 7 6 -4 4 -14 1
-22 -6 -17 -14 -13 -16 -95 58 -19 18 -43 35 -52 38 -10 3 -18 9 -18 13 0 5
-18 21 -40 36 -22 15 -37 32 -33 38 3 6 1 7 -6 3 -15 -9 -73 32 -65 46 4 6 3
8 -3 5 -6 -4 -39 14 -74 38 -35 25 -75 50 -89 55 -13 6 -49 28 -80 49 -58 39
-371 201 -388 201 -6 0 -45 16 -86 35 -42 19 -78 35 -81 35 -3 0 -46 16 -95
35 -49 19 -129 46 -177 59 -49 13 -113 31 -144 39 -31 9 -105 26 -165 37 -60
12 -116 24 -124 27 -8 3 -24 6 -35 8 -11 1 -60 7 -110 14 -244 32 -662 39
-895 15z m2876 -921 c-7 -7 -26 7 -26 19 0 6 6 6 15 -2 9 -7 13 -15 11 -17z"/>
<path d="M4168 8473 c7 -3 16 -2 19 1 4 3 -2 6 -13 5 -11 0 -14 -3 -6 -6z"/>
<path d="M6275 8460 c3 -5 8 -10 11 -10 2 0 4 5 4 10 0 6 -5 10 -11 10 -5 0
-7 -4 -4 -10z"/>
<path d="M7180 8400 c-9 -6 -10 -10 -3 -10 6 0 15 5 18 10 8 12 4 12 -15 0z"/>
<path d="M5660 8396 c0 -2 7 -7 16 -10 8 -3 12 -2 9 4 -6 10 -25 14 -25 6z"/>
<path d="M6400 8390 c0 -5 5 -10 11 -10 5 0 7 5 4 10 -3 6 -8 10 -11 10 -2 0
-4 -4 -4 -10z"/>
<path d="M6460 8363 c8 -3 19 -11 23 -17 6 -7 7 -6 4 4 -2 8 -12 16 -23 17
-13 2 -15 1 -4 -4z"/>
<path d="M6580 8280 c0 -6 7 -10 15 -10 8 0 15 2 15 4 0 2 -7 6 -15 10 -8 3
-15 1 -15 -4z"/>
<path d="M6088 8253 c7 -3 16 -2 19 1 4 3 -2 6 -13 5 -11 0 -14 -3 -6 -6z"/>
<path d="M3318 8243 c7 -3 16 -2 19 1 4 3 -2 6 -13 5 -11 0 -14 -3 -6 -6z"/>
<path d="M6670 8243 c0 -9 40 -36 45 -31 2 2 -8 11 -21 21 -13 10 -24 14 -24
10z"/>
<path d="M2710 8195 c-11 -13 -10 -14 4 -9 9 3 16 10 16 15 0 13 -6 11 -20 -6z"/>
<path d="M2667 8161 c-4 -17 -3 -21 5 -13 5 5 8 16 6 23 -3 8 -7 3 -11 -10z"/>
<path d="M7500 8170 c-9 -6 -10 -10 -3 -10 6 0 15 5 18 10 8 12 4 12 -15 0z"/>
<path d="M2605 8120 c-3 -5 -1 -10 4 -10 6 0 11 5 11 10 0 6 -2 10 -4 10 -3 0
-8 -4 -11 -10z"/>
<path d="M6888 8065 c-3 -14 -1 -28 3 -31 5 -3 9 1 9 10 0 8 5 16 11 18 7 2 6
8 -4 16 -12 10 -15 8 -19 -13z"/>
<path d="M2898 8073 c6 -2 10 -8 7 -13 -3 -4 5 -6 17 -2 21 5 21 6 2 13 -10 4
-23 8 -29 8 -5 -1 -4 -3 3 -6z"/>
<path d="M2523 8063 c-23 -9 -14 -20 12 -15 14 2 25 8 25 13 0 10 -17 11 -37
2z"/>
<path d="M1698 7998 c7 -7 16 -7 28 0 14 8 13 10 -10 10 -18 0 -24 -4 -18 -10z"/>
<path d="M7705 8000 c3 -5 8 -10 11 -10 2 0 4 5 4 10 0 6 -5 10 -11 10 -5 0
-7 -4 -4 -10z"/>
<path d="M6646 7982 c18 -20 24 -22 47 -11 25 11 28 29 6 29 -6 0 -8 -4 -5 -9
11 -18 -27 -21 -48 -4 l-21 17 21 -22z"/>
<path d="M7742 7991 c-11 -6 -10 -10 0 -19 11 -8 14 -7 14 9 0 10 0 19 -1 19
0 0 -6 -4 -13 -9z"/>
<path d="M2775 7970 c-3 -6 1 -7 9 -4 18 7 21 14 7 14 -6 0 -13 -4 -16 -10z"/>
<path d="M1607 7934 c-11 -11 3 -24 18 -18 8 4 12 10 9 15 -6 11 -18 12 -27 3z"/>
<path d="M7826 7913 c-6 -14 -5 -15 5 -6 7 7 10 15 7 18 -3 3 -9 -2 -12 -12z"/>
<path d="M7120 7903 c0 -15 19 -37 26 -31 3 4 -1 14 -10 23 -9 9 -16 13 -16 8z"/>
<path d="M2316 7871 c-4 -5 3 -7 14 -4 23 6 26 13 6 13 -8 0 -17 -4 -20 -9z"/>
<path d="M7890 7840 c0 -5 5 -10 10 -10 6 0 10 5 10 10 0 6 -4 10 -10 10 -5 0
-10 -4 -10 -10z"/>
<path d="M6905 7810 c3 -5 8 -10 11 -10 2 0 4 5 4 10 0 6 -5 10 -11 10 -5 0
-7 -4 -4 -10z"/>
<path d="M7284 7732 c1 -26 3 -29 20 -20 14 8 15 12 6 18 -7 4 -16 13 -20 20
-4 6 -7 -1 -6 -18z"/>
<path d="M2132 7724 c-12 -13 -18 -24 -13 -24 12 0 41 29 41 41 0 12 -2 11
-28 -17z"/>
<path d="M7365 7648 c0 -18 6 -23 27 -24 l28 -1 -26 23 c-31 29 -29 29 -29 2z"/>
<path d="M2055 7640 c3 -5 8 -10 11 -10 2 0 4 5 4 10 0 6 -5 10 -11 10 -5 0
-7 -4 -4 -10z"/>
<path d="M1320 7610 c-8 -5 -12 -11 -10 -14 3 -2 14 2 24 10 22 15 10 19 -14
4z"/>
<path d="M7167 7609 c7 -7 15 -10 18 -7 3 3 -2 9 -12 12 -14 6 -15 5 -6 -5z"/>
<path d="M8205 7529 c-11 -16 -1 -19 13 -3 7 8 8 14 3 14 -5 0 -13 -5 -16 -11z"/>
<path d="M1236 7515 c-3 -8 -1 -15 4 -15 6 0 10 7 10 15 0 8 -2 15 -4 15 -2 0
-6 -7 -10 -15z"/>
<path d="M7530 7479 c0 -5 5 -7 10 -4 6 3 10 8 10 11 0 2 -4 4 -10 4 -5 0 -10
-5 -10 -11z"/>
<path d="M1123 7445 c2 -5 12 -9 21 -7 14 3 16 -1 11 -19 -9 -26 9 -18 25 11
8 16 8 18 -5 14 -8 -4 -15 -1 -15 4 0 6 -9 10 -20 9 -11 -1 -19 -6 -17 -12z"/>
<path d="M8370 7366 c0 -2 7 -9 15 -16 13 -11 14 -10 9 4 -5 14 -24 23 -24 12z"/>
<path d="M8366 7337 c3 -10 9 -15 12 -12 3 3 0 11 -7 18 -10 9 -11 8 -5 -6z"/>
<path d="M1715 7244 c-11 -17 -12 -25 -4 -22 6 2 16 14 20 26 11 29 5 28 -16
-4z"/>
<path d="M8421 7243 c7 -12 15 -20 18 -17 3 2 -3 12 -13 22 -17 16 -18 16 -5
-5z"/>
<path d="M7686 7228 c3 -5 10 -6 15 -3 13 9 11 12 -6 12 -8 0 -12 -4 -9 -9z"/>
<path d="M981 7206 c-8 -10 -9 -16 -1 -21 5 -3 10 0 10 9 0 8 6 17 13 19 7 4
8 6 1 6 -6 1 -17 -5 -23 -13z"/>
<path d="M887 7120 c-3 -14 -1 -17 11 -13 11 5 13 3 7 -7 -5 -8 -4 -11 3 -6 6
4 8 14 5 23 -5 12 -3 14 8 8 8 -5 11 -4 6 0 -14 16 -35 13 -40 -5z"/>
<path d="M1650 7120 c0 -5 5 -10 10 -10 6 0 10 5 10 10 0 6 -4 10 -10 10 -5 0
-10 -4 -10 -10z"/>
<path d="M8520 7111 c0 -5 7 -15 17 -22 15 -13 15 -12 4 9 -12 23 -21 28 -21
13z"/>
<path d="M1536 7005 c-9 -26 -7 -32 5 -12 6 10 9 21 6 23 -2 3 -7 -2 -11 -11z"/>
<path d="M1580 7001 c0 -6 4 -13 10 -16 6 -3 7 1 4 9 -7 18 -14 21 -14 7z"/>
<path d="M7780 6966 c7 -7 13 -7 20 0 6 6 3 10 -10 10 -13 0 -16 -4 -10 -10z"/>
<path d="M810 6944 c0 -8 5 -12 10 -9 6 3 10 10 10 16 0 5 -4 9 -10 9 -5 0
-10 -7 -10 -16z"/>
<path d="M1550 6789 c0 -5 5 -7 10 -4 6 3 10 8 10 11 0 2 -4 4 -10 4 -5 0 -10
-5 -10 -11z"/>
<path d="M7940 6730 c-9 -6 -10 -10 -3 -10 6 0 15 5 18 10 8 12 4 12 -15 0z"/>
<path d="M671 6704 c0 -11 3 -14 6 -6 3 7 2 16 -1 19 -3 4 -6 -2 -5 -13z"/>
<path d="M7955 6679 c-4 -6 -5 -12 -2 -15 2 -3 7 2 10 11 7 17 1 20 -8 4z"/>
<path d="M650 6660 c0 -5 5 -10 11 -10 5 0 7 5 4 10 -3 6 -8 10 -11 10 -2 0
-4 -4 -4 -10z"/>
<path d="M1461 6634 c0 -11 3 -14 6 -6 3 7 2 16 -1 19 -3 4 -6 -2 -5 -13z"/>
<path d="M1322 6616 c-17 -37 -15 -45 4 -18 8 12 14 27 12 33 -2 6 -9 -1 -16
-15z"/>
<path d="M8103 6605 c-3 -9 -3 -18 -1 -21 3 -3 8 4 11 16 6 23 -1 27 -10 5z"/>
<path d="M1435 6600 c-3 -5 -1 -10 4 -10 6 0 11 5 11 10 0 6 -2 10 -4 10 -3 0
-8 -4 -11 -10z"/>
<path d="M8837 6563 c3 -10 13 -27 20 -38 13 -19 14 -18 7 10 -8 37 -13 45
-24 45 -5 0 -7 -8 -3 -17z"/>
<path d="M8871 6564 c0 -11 3 -14 6 -6 3 7 2 16 -1 19 -3 4 -6 -2 -5 -13z"/>
<path d="M8161 6524 c0 -11 3 -14 6 -6 3 7 2 16 -1 19 -3 4 -6 -2 -5 -13z"/>
<path d="M1262 6490 c0 -14 2 -19 5 -12 2 6 2 18 0 25 -3 6 -5 1 -5 -13z"/>
<path d="M530 6415 c0 -5 5 -17 10 -25 5 -8 10 -10 10 -5 0 6 -5 17 -10 25 -5
8 -10 11 -10 5z"/>
<path d="M1205 6380 c-3 -6 1 -7 9 -4 18 7 21 14 7 14 -6 0 -13 -4 -16 -10z"/>
<path d="M8942 6368 c-5 -7 -6 -22 -2 -33 6 -17 8 -15 12 13 5 36 5 37 -10 20z"/>
<path d="M1226 6353 c-6 -14 -5 -15 5 -6 7 7 10 15 7 18 -3 3 -9 -2 -12 -12z"/>
<path d="M500 6351 c0 -6 4 -13 10 -16 6 -3 7 1 4 9 -7 18 -14 21 -14 7z"/>
<path d="M1181 6294 c0 -11 3 -14 6 -6 3 7 2 16 -1 19 -3 4 -6 -2 -5 -13z"/>
<path d="M9011 6198 c-1 -21 15 -32 25 -17 4 7 3 9 -4 5 -6 -3 -13 2 -15 11
-4 16 -5 16 -6 1z"/>
<path d="M1236 6174 c-4 -14 -5 -28 -3 -31 3 -2 8 8 11 23 4 14 5 28 3 31 -3
2 -8 -8 -11 -23z"/>
<path d="M8211 6184 c0 -11 3 -14 6 -6 3 7 2 16 -1 19 -3 4 -6 -2 -5 -13z"/>
<path d="M8221 6144 c0 -11 3 -14 6 -6 3 7 2 16 -1 19 -3 4 -6 -2 -5 -13z"/>
<path d="M9000 6151 c0 -5 5 -13 10 -16 6 -3 10 -2 10 4 0 5 -4 13 -10 16 -5
3 -10 2 -10 -4z"/>
<path d="M1211 6103 c-1 -6 -4 -20 -7 -30 -5 -17 -5 -17 6 0 6 10 9 23 6 30
-3 9 -5 9 -5 0z"/>
<path d="M1076 5965 c-3 -9 -6 -24 -5 -33 0 -9 5 -4 10 12 9 32 6 48 -5 21z"/>
<path d="M8281 5964 c0 -11 3 -14 6 -6 3 7 2 16 -1 19 -3 4 -6 -2 -5 -13z"/>
<path d="M1031 5874 c0 -11 3 -14 6 -6 3 7 2 16 -1 19 -3 4 -6 -2 -5 -13z"/>
<path d="M341 5804 c0 -11 3 -14 6 -6 3 7 2 16 -1 19 -3 4 -6 -2 -5 -13z"/>
<path d="M9161 5648 c0 -9 -4 -25 -7 -35 -5 -17 -5 -17 6 0 6 10 9 25 7 35 -4
15 -5 15 -6 0z"/>
<path d="M270 5555 c0 -5 5 -17 10 -25 5 -8 10 -10 10 -5 0 6 -5 17 -10 25 -5
8 -10 11 -10 5z"/>
<path d="M921 5324 c0 -11 3 -14 6 -6 3 7 2 16 -1 19 -3 4 -6 -2 -5 -13z"/>
<path d="M282 3955 c0 -16 2 -22 5 -12 2 9 2 23 0 30 -3 6 -5 -1 -5 -18z"/>
<path d="M9152 3880 c0 -14 2 -19 5 -12 2 6 2 18 0 25 -3 6 -5 1 -5 -13z"/>
<path d="M1071 3824 c0 -11 3 -14 6 -6 3 7 2 16 -1 19 -3 4 -6 -2 -5 -13z"/>
<path d="M352 3605 c0 -16 2 -22 5 -12 2 9 2 23 0 30 -3 6 -5 -1 -5 -18z"/>
<path d="M9085 3609 c-4 -6 -5 -12 -2 -15 2 -3 7 2 10 11 7 17 1 20 -8 4z"/>
<path d="M8361 3454 c0 -11 3 -14 6 -6 3 7 2 16 -1 19 -3 4 -6 -2 -5 -13z"/>
<path d="M1225 3340 c3 -5 8 -10 11 -10 2 0 4 5 4 10 0 6 -5 10 -11 10 -5 0
-7 -4 -4 -10z"/>
<path d="M8211 3326 c-7 -12 -11 -34 -8 -47 4 -20 4 -19 6 7 0 16 6 35 13 42
6 6 9 14 7 17 -3 3 -11 -6 -18 -19z"/>
<path d="M1183 3196 c7 -14 13 -23 15 -21 7 6 -9 45 -18 45 -4 0 -3 -11 3 -24z"/>
<path d="M8260 3210 c0 -5 5 -10 10 -10 6 0 10 5 10 10 0 6 -4 10 -10 10 -5 0
-10 -4 -10 -10z"/>
<path d="M8933 3164 c-6 -13 -7 -24 -3 -24 9 0 25 39 18 45 -2 2 -8 -7 -15
-21z"/>
<path d="M8105 3109 c-4 -6 -5 -12 -2 -15 2 -3 7 2 10 11 7 17 1 20 -8 4z"/>
<path d="M8157 3059 c7 -7 15 -10 18 -7 3 3 -2 9 -12 12 -14 6 -15 5 -6 -5z"/>
<path d="M1261 3024 c0 -11 3 -14 6 -6 3 7 2 16 -1 19 -3 4 -6 -2 -5 -13z"/>
<path d="M571 3014 c0 -11 3 -14 6 -6 3 7 2 16 -1 19 -3 4 -6 -2 -5 -13z"/>
<path d="M584 2976 c-3 -8 -4 -23 -2 -33 3 -11 6 -6 9 15 6 34 2 42 -7 18z"/>
<path d="M8112 2878 c2 -16 6 -24 11 -19 5 5 5 17 -2 28 -9 16 -10 15 -9 -9z"/>
<path d="M1336 2865 c4 -8 8 -15 10 -15 2 0 4 7 4 15 0 8 -4 15 -10 15 -5 0
-7 -7 -4 -15z"/>
<path d="M649 2848 c0 -7 -2 -24 -4 -38 -2 -14 -1 -19 1 -12 3 6 9 10 14 7 4
-3 10 2 13 10 4 10 1 12 -11 8 -14 -6 -15 -4 -4 9 9 11 10 18 2 23 -5 3 -10 0
-11 -7z"/>
<path d="M7950 2769 c0 -5 5 -7 10 -4 6 3 10 8 10 11 0 2 -4 4 -10 4 -5 0 -10
-5 -10 -11z"/>
<path d="M1406 2745 c-9 -26 -7 -32 5 -12 6 10 9 21 6 23 -2 3 -7 -2 -11 -11z"/>
<path d="M1424 2727 c-2 -7 0 -24 5 -38 8 -21 9 -20 8 13 -2 41 -5 46 -13 25z"/>
<path d="M8019 2693 c-13 -16 -12 -17 4 -4 9 7 17 15 17 17 0 8 -8 3 -21 -13z"/>
<path d="M726 2683 c-6 -14 -5 -15 5 -6 7 7 10 15 7 18 -3 3 -9 -2 -12 -12z"/>
<path d="M1541 2683 c-1 -17 16 -25 25 -12 4 7 3 9 -4 5 -5 -3 -13 0 -15 6 -4
9 -6 10 -6 1z"/>
<path d="M756 2657 c3 -10 9 -15 12 -12 3 3 0 11 -7 18 -10 9 -11 8 -5 -6z"/>
<path d="M1486 2643 c-6 -14 -5 -15 5 -6 7 7 10 15 7 18 -3 3 -9 -2 -12 -12z"/>
<path d="M8706 2637 c3 -10 9 -15 12 -12 3 3 0 11 -7 18 -10 9 -11 8 -5 -6z"/>
<path d="M8676 2603 c-6 -14 -5 -15 5 -6 7 7 10 15 7 18 -3 3 -9 -2 -12 -12z"/>
<path d="M8696 2593 c-6 -14 -5 -15 5 -6 7 7 10 15 7 18 -3 3 -9 -2 -12 -12z"/>
<path d="M807 2560 c3 -11 9 -17 15 -14 5 3 4 12 -3 20 -16 19 -18 18 -12 -6z"/>
<path d="M8617 2547 c-4 -10 -2 -17 4 -17 6 0 8 -8 4 -17 -4 -13 -3 -15 5 -7
7 7 7 19 2 34 -7 19 -10 21 -15 7z"/>
<path d="M835 2530 c3 -5 8 -10 11 -10 2 0 4 5 4 10 0 6 -5 10 -11 10 -5 0 -7
-4 -4 -10z"/>
<path d="M7854 2478 c-3 -4 -1 -15 4 -23 7 -14 10 -12 19 8 9 19 8 24 -3 24
-8 0 -17 -4 -20 -9z"/>
<path d="M7675 2430 c-3 -5 -1 -10 4 -10 6 0 11 5 11 10 0 6 -2 10 -4 10 -3 0
-8 -4 -11 -10z"/>
<path d="M1605 2400 c-3 -5 -1 -10 4 -10 6 0 11 5 11 10 0 6 -2 10 -4 10 -3 0
-8 -4 -11 -10z"/>
<path d="M7640 2368 c-12 -22 -12 -22 6 -6 10 10 15 20 12 24 -4 3 -12 -5 -18
-18z"/>
<path d="M8450 2290 c0 -5 5 -10 10 -10 6 0 10 5 10 10 0 6 -4 10 -10 10 -5 0
-10 -4 -10 -10z"/>
<path d="M1000 2280 c0 -5 5 -10 11 -10 5 0 7 5 4 10 -3 6 -8 10 -11 10 -2 0
-4 -4 -4 -10z"/>
<path d="M1742 2248 c-14 -14 -16 -28 -3 -28 5 0 11 9 14 20 6 23 5 24 -11 8z"/>
<path d="M7720 2260 c-8 -26 -7 -41 2 -32 6 6 8 16 5 24 -3 7 -6 11 -7 8z"/>
<path d="M1060 2201 c0 -6 4 -13 10 -16 6 -3 7 1 4 9 -7 18 -14 21 -14 7z"/>
<path d="M7615 2150 c-3 -5 -1 -10 4 -10 6 0 11 5 11 10 0 6 -2 10 -4 10 -3 0
-8 -4 -11 -10z"/>
<path d="M2095 2050 c3 -5 11 -10 16 -10 6 0 7 5 4 10 -3 6 -11 10 -16 10 -6
0 -7 -4 -4 -10z"/>
<path d="M1937 2004 c7 -20 29 -23 29 -5 0 9 -8 17 -17 17 -9 0 -15 -6 -12
-12z"/>
<path d="M1920 1992 c0 -12 19 -26 26 -19 2 2 -2 10 -11 17 -9 8 -15 8 -15 2z"/>
<path d="M8190 1961 c0 -5 7 -12 16 -15 24 -9 27 -7 10 9 -17 17 -26 19 -26 6z"/>
<path d="M7460 1940 c-8 -5 -12 -11 -9 -14 2 -3 11 -1 19 4 8 5 12 11 9 14 -2
3 -11 1 -19 -4z"/>
<path d="M7155 1880 c-10 -11 -16 -20 -13 -20 3 0 15 9 28 20 13 11 19 20 13
20 -5 0 -18 -9 -28 -20z"/>
<path d="M8116 1881 c-3 -5 1 -11 9 -15 8 -3 15 -1 15 4 0 13 -18 22 -24 11z"/>
<path d="M2326 1857 c3 -10 9 -15 12 -12 3 3 0 11 -7 18 -10 9 -11 8 -5 -6z"/>
<path d="M7395 1860 c-3 -5 -1 -10 4 -10 6 0 11 5 11 10 0 6 -2 10 -4 10 -3 0
-8 -4 -11 -10z"/>
<path d="M8046 1806 l-26 -23 28 1 c21 1 27 6 27 24 0 27 2 27 -29 -2z"/>
<path d="M7010 1760 c-9 -6 -10 -10 -3 -10 6 0 15 5 18 10 8 12 4 12 -15 0z"/>
<path d="M7290 1759 c0 -5 5 -7 10 -4 6 3 10 8 10 11 0 2 -4 4 -10 4 -5 0 -10
-5 -10 -11z"/>
<path d="M2215 1693 c11 -11 22 -16 23 -11 2 4 9 5 15 1 7 -3 10 -4 7 0 -3 3
-9 6 -15 7 -5 1 -19 7 -30 12 l-20 11 20 -20z"/>
<path d="M7895 1660 c-3 -5 -1 -10 4 -10 6 0 11 5 11 10 0 6 -2 10 -4 10 -3 0
-8 -4 -11 -10z"/>
<path d="M2577 1649 c7 -7 15 -10 18 -7 3 3 -2 9 -12 12 -14 6 -15 5 -6 -5z"/>
<path d="M7870 1640 c0 -5 5 -10 11 -10 5 0 7 5 4 10 -3 6 -8 10 -11 10 -2 0
-4 -4 -4 -10z"/>
<path d="M2391 1604 c0 -11 3 -14 6 -6 3 7 2 16 -1 19 -3 4 -6 -2 -5 -13z"/>
<path d="M2667 1579 c7 -7 15 -10 18 -7 3 3 -2 9 -12 12 -14 6 -15 5 -6 -5z"/>
<path d="M7796 1574 c-5 -14 -4 -15 9 -4 17 14 19 20 6 20 -5 0 -12 -7 -15
-16z"/>
<path d="M1676 1538 c3 -5 10 -6 15 -3 13 9 11 12 -6 12 -8 0 -12 -4 -9 -9z"/>
<path d="M7000 1510 c0 -5 -7 -10 -16 -10 -8 0 -12 -4 -9 -10 4 -6 13 -5 25 3
21 13 26 27 10 27 -5 0 -10 -4 -10 -10z"/>
<path d="M7705 1480 c-3 -5 -1 -10 4 -10 6 0 11 5 11 10 0 6 -2 10 -4 10 -3 0
-8 -4 -11 -10z"/>
<path d="M6885 1449 c-11 -16 -1 -19 13 -3 7 8 8 14 3 14 -5 0 -13 -5 -16 -11z"/>
<path d="M6905 1430 c-3 -5 -2 -10 4 -10 5 0 13 5 16 10 3 6 2 10 -4 10 -5 0
-13 -4 -16 -10z"/>
<path d="M7580 1400 c-12 -7 -10 -9 7 -7 12 0 19 5 17 9 -6 10 -6 10 -24 -2z"/>
<path d="M6768 1353 c7 -3 16 -2 19 1 4 3 -2 6 -13 5 -11 0 -14 -3 -6 -6z"/>
<path d="M1920 1341 c0 -5 12 -8 26 -8 18 0 22 2 13 8 -18 11 -39 11 -39 0z"/>
<path d="M7510 1342 c0 -7 -7 -12 -15 -12 -8 0 -15 -4 -15 -10 0 -16 27 -11
34 6 4 9 4 19 1 22 -3 3 -5 0 -5 -6z"/>
<path d="M6110 1250 c-9 -6 -10 -10 -3 -10 6 0 15 5 18 10 8 12 4 12 -15 0z"/>
<path d="M7420 1240 c-9 -6 -10 -10 -3 -10 6 0 15 5 18 10 8 12 4 12 -15 0z"/>
<path d="M2925 1210 c27 -12 43 -12 25 0 -8 5 -22 9 -30 9 -10 0 -8 -3 5 -9z"/>
<path d="M3548 1173 c7 -3 16 -2 19 1 4 3 -2 6 -13 5 -11 0 -14 -3 -6 -6z"/>
<path d="M3590 1160 c0 -6 7 -10 15 -10 8 0 15 2 15 4 0 2 -7 6 -15 10 -8 3
-15 1 -15 -4z"/>
<path d="M3010 1130 c-13 -8 -12 -10 3 -10 9 0 17 -4 17 -10 0 -5 8 -6 17 -3
14 5 14 8 2 11 -7 3 -16 9 -19 13 -3 4 -12 4 -20 -1z"/>
<path d="M6455 1130 c-13 -6 -15 -9 -5 -9 8 0 22 4 30 9 18 12 2 12 -25 0z"/>
<path d="M6400 1099 c0 -5 5 -7 10 -4 6 3 10 8 10 11 0 2 -4 4 -10 4 -5 0 -10
-5 -10 -11z"/>
<path d="M2288 1083 c7 -3 16 -2 19 1 4 3 -2 6 -13 5 -11 0 -14 -3 -6 -6z"/>
<path d="M7164 1078 c10 -6 22 -6 26 -2 5 5 -3 10 -18 11 -22 1 -24 0 -8 -9z"/>
<path d="M2325 1070 c3 -5 11 -10 16 -10 6 0 7 5 4 10 -3 6 -11 10 -16 10 -6
0 -7 -4 -4 -10z"/>
<path d="M2460 1020 c8 -5 20 -10 25 -10 6 0 3 5 -5 10 -8 5 -19 10 -25 10 -5
0 -3 -5 5 -10z"/>
<path d="M4248 1013 c7 -3 16 -2 19 1 4 3 -2 6 -13 5 -11 0 -14 -3 -6 -6z"/>
<path d="M2466 987 c10 -5 24 -5 36 0 17 7 14 9 -16 9 -27 0 -32 -2 -20 -9z"/>
<path d="M6063 953 c9 -2 15 -9 12 -14 -3 -5 1 -6 10 -2 13 5 14 7 3 14 -7 5
-20 8 -28 8 -11 -1 -10 -3 3 -6z"/>
<path d="M6840 926 c0 -2 9 -6 20 -9 11 -3 18 -1 14 4 -5 9 -34 13 -34 5z"/>
<path d="M2668 913 c7 -3 16 -2 19 1 4 3 -2 6 -13 5 -11 0 -14 -3 -6 -6z"/>
<path d="M3590 865 c-7 -9 -8 -15 -2 -15 5 0 12 7 16 15 3 8 4 15 2 15 -2 0
-9 -7 -16 -15z"/>
<path d="M6665 870 c-8 -13 5 -13 25 0 13 8 13 10 -2 10 -9 0 -20 -4 -23 -10z"/>
<path d="M2825 850 c3 -5 11 -10 16 -10 6 0 7 5 4 10 -3 6 -11 10 -16 10 -6 0
-7 -4 -4 -10z"/>
<path d="M2768 843 c7 -3 16 -2 19 1 4 3 -2 6 -13 5 -11 0 -14 -3 -6 -6z"/>
<path d="M2855 830 c-3 -6 1 -7 9 -4 18 7 21 14 7 14 -6 0 -13 -4 -16 -10z"/>
<path d="M6358 753 c6 -2 18 -2 25 0 6 3 1 5 -13 5 -14 0 -19 -2 -12 -5z"/>
<path d="M5435 720 c-3 -6 1 -7 9 -4 18 7 21 14 7 14 -6 0 -13 -4 -16 -10z"/>
<path d="M3238 703 c7 -3 16 -2 19 1 4 3 -2 6 -13 5 -11 0 -14 -3 -6 -6z"/>
<path d="M6116 681 c-3 -4 6 -6 19 -3 14 2 25 6 25 8 0 8 -39 4 -44 -5z"/>
<path d="M4378 643 c7 -3 16 -2 19 1 4 3 -2 6 -13 5 -11 0 -14 -3 -6 -6z"/>
<path d="M5048 643 c7 -3 16 -2 19 1 4 3 -2 6 -13 5 -11 0 -14 -3 -6 -6z"/>
<path d="M4978 633 c7 -3 16 -2 19 1 4 3 -2 6 -13 5 -11 0 -14 -3 -6 -6z"/>
<path d="M4533 623 c9 -2 25 -2 35 0 9 3 1 5 -18 5 -19 0 -27 -2 -17 -5z"/>
<path d="M4508 543 c18 -2 45 -2 60 0 15 2 0 4 -33 4 -33 0 -45 -2 -27 -4z"/>
<path d="M4908 543 c12 -2 30 -2 40 0 9 3 -1 5 -23 4 -22 0 -30 -2 -17 -4z"/>
<path d="M4343 523 c9 -2 25 -2 35 0 9 3 1 5 -18 5 -19 0 -27 -2 -17 -5z"/>
<path d="M5073 523 c9 -2 23 -2 30 0 6 3 -1 5 -18 5 -16 0 -22 -2 -12 -5z"/>
</g>
</svg>
